<svg id="svg" version="1.1" xmlns="http://www.w3.org/2000/svg" xmlns:xlink="http://www.w3.org/1999/xlink" width="400" height="99.07120743034056" viewBox="0, 0, 400,99.07120743034056"><g id="svgg"><path id="path0" d="M88.396 10.917 C 88.396 11.925,88.424 12.316,88.457 11.786 C 88.490 11.255,88.490 10.430,88.456 9.952 C 88.422 9.474,88.395 9.908,88.396 10.917 M52.214 13.269 C 52.280 13.335,52.209 13.527,52.057 13.696 C 51.655 14.140,51.851 14.169,52.274 13.728 C 52.588 13.402,52.599 13.343,52.363 13.252 C 52.215 13.196,52.148 13.203,52.214 13.269 M115.500 36.641 C 114.940 36.718,114.627 36.999,114.717 37.343 C 114.799 37.656,113.916 37.827,112.167 37.834 C 111.111 37.839,110.938 37.927,110.859 38.500 C 110.786 39.023,110.911 38.965,109.750 39.017 C 108.672 39.066,108.252 39.315,108.410 39.813 C 108.514 40.141,108.114 40.424,107.811 40.236 C 107.540 40.069,107.167 40.517,107.167 41.010 C 107.167 41.433,107.104 41.485,106.542 41.532 C 106.133 41.565,105.909 41.670,105.894 41.833 C 105.882 41.971,105.863 42.236,105.853 42.422 C 105.838 42.682,105.726 42.756,105.375 42.739 C 104.850 42.713,104.673 42.905,104.669 43.507 C 104.667 43.841,104.551 43.965,104.125 44.091 C 103.683 44.221,103.577 44.342,103.549 44.750 C 103.439 46.347,103.354 46.738,103.097 46.828 C 102.948 46.881,102.678 47.168,102.496 47.466 C 101.999 48.283,101.983 58.586,102.478 58.743 C 103.024 58.916,103.366 59.456,103.414 60.224 C 103.474 61.180,103.579 61.333,104.177 61.333 L 104.667 61.333 104.667 62.413 C 104.667 63.456,104.682 63.497,105.125 63.594 C 105.970 63.779,106.012 63.812,105.910 64.217 C 105.815 64.597,106.123 65.043,106.441 64.986 C 106.888 64.906,107.167 65.034,107.167 65.320 C 107.167 65.978,107.353 66.167,108.002 66.167 C 108.536 66.167,108.623 66.215,108.555 66.475 C 108.426 66.969,108.916 67.291,109.985 67.415 C 110.898 67.521,110.985 67.567,111.032 67.964 C 111.111 68.631,111.586 68.675,118.198 68.627 L 124.250 68.583 124.409 68.042 C 124.565 67.512,124.590 67.500,125.523 67.500 C 126.584 67.500,127.000 67.239,127.000 66.571 C 127.000 66.220,127.077 66.167,127.583 66.167 C 128.134 66.167,128.167 66.135,128.167 65.607 L 128.167 65.047 129.201 64.939 C 129.770 64.880,130.314 64.753,130.409 64.657 C 130.661 64.407,130.742 51.875,130.494 51.576 C 130.171 51.187,115.006 51.251,114.731 51.643 C 114.501 51.972,114.495 56.921,114.724 57.292 C 114.822 57.451,115.998 57.500,119.677 57.500 L 124.500 57.500 124.500 59.417 L 124.500 61.333 123.823 61.333 C 123.451 61.333,123.188 61.400,123.239 61.482 C 123.290 61.564,123.149 61.677,122.927 61.733 C 122.704 61.788,122.475 61.984,122.417 62.167 C 122.319 62.476,120.986 62.657,119.875 62.512 C 119.760 62.498,119.660 62.545,119.653 62.618 C 119.612 63.009,119.472 63.750,119.430 63.792 C 119.155 64.067,116.983 63.572,116.893 63.214 C 116.756 62.669,116.228 62.500,114.666 62.500 L 113.354 62.500 113.302 61.958 C 113.255 61.470,113.192 61.412,112.657 61.367 C 112.151 61.324,112.041 61.239,111.907 60.784 C 111.779 60.348,111.666 60.251,111.292 60.257 C 110.891 60.262,110.833 60.199,110.831 59.757 C 110.828 59.191,110.686 58.925,110.375 58.900 C 110.260 58.891,110.063 58.872,109.936 58.858 C 109.780 58.841,109.668 58.485,109.589 57.749 C 109.470 56.631,109.132 56.183,108.570 56.399 C 108.370 56.475,108.333 55.984,108.333 53.266 L 108.333 50.042 108.804 49.948 C 109.312 49.846,109.667 49.062,109.667 48.040 C 109.667 47.644,109.754 47.514,110.076 47.433 C 110.507 47.325,110.831 46.551,110.832 45.625 C 110.833 45.200,110.884 45.165,111.542 45.150 C 112.703 45.123,113.077 44.959,113.136 44.452 C 113.183 44.052,113.260 44.000,113.803 43.998 C 114.988 43.995,115.667 43.810,115.667 43.492 C 115.667 42.708,115.770 42.667,117.747 42.667 L 119.625 42.667 119.721 43.146 C 119.841 43.747,120.088 43.844,121.792 43.956 C 122.608 44.010,123.177 44.122,123.192 44.232 C 123.206 44.333,123.235 44.492,123.256 44.583 C 123.277 44.675,123.304 44.844,123.314 44.958 C 123.325 45.082,123.571 45.167,123.917 45.167 C 124.472 45.167,124.500 45.194,124.500 45.750 L 124.500 46.333 126.333 46.333 L 128.167 46.333 128.167 45.750 L 128.167 45.167 129.011 45.167 C 130.510 45.167,130.826 44.669,130.549 42.741 C 130.436 41.955,130.347 41.755,130.120 41.773 C 129.962 41.786,129.833 41.730,129.833 41.648 C 129.833 41.567,129.463 41.500,129.010 41.500 L 128.187 41.500 128.135 40.875 C 128.101 40.467,127.997 40.242,127.833 40.228 C 127.696 40.215,127.452 40.196,127.292 40.186 C 127.122 40.175,127.000 40.033,127.000 39.847 C 127.000 39.096,126.848 39.000,125.659 39.000 L 124.521 39.000 124.469 38.458 L 124.417 37.917 122.967 37.806 C 121.516 37.696,120.684 37.358,120.672 36.875 C 120.669 36.760,120.535 36.658,120.375 36.648 C 119.560 36.596,115.862 36.591,115.500 36.641 M133.905 36.641 C 133.728 36.673,133.508 36.778,133.417 36.874 C 133.302 36.994,133.328 37.011,133.500 36.929 C 133.658 36.853,133.644 36.896,133.462 37.045 C 133.192 37.267,133.173 38.304,133.168 52.978 L 133.163 68.674 136.207 68.629 L 139.250 68.583 139.294 63.042 L 139.338 57.500 141.169 57.500 C 142.266 57.500,143.007 57.567,143.019 57.667 C 143.029 57.758,143.043 58.002,143.051 58.208 C 143.068 58.669,143.278 58.827,143.875 58.831 C 144.307 58.833,144.529 59.855,144.355 61.035 C 144.346 61.099,144.600 61.201,144.919 61.261 C 145.328 61.338,145.500 61.460,145.500 61.672 C 145.500 62.290,145.695 62.500,146.268 62.500 L 146.833 62.500 146.833 63.550 C 146.833 64.680,147.006 65.000,147.617 65.000 C 147.942 65.000,148.000 65.086,148.000 65.573 C 148.000 66.114,148.035 66.150,148.616 66.198 L 149.231 66.250 149.251 67.083 C 149.294 68.848,149.000 68.667,151.815 68.667 C 154.296 68.667,154.297 68.667,154.398 69.067 C 154.620 69.953,156.261 69.902,156.441 69.004 C 156.548 68.468,157.024 68.482,157.560 69.037 C 157.865 69.354,157.874 69.353,158.237 69.012 C 158.566 68.703,158.825 68.665,160.677 68.647 C 164.001 68.615,164.137 68.516,164.157 66.125 C 164.166 65.065,164.189 65.000,164.550 65.000 C 165.160 65.000,165.333 64.680,165.333 63.550 L 165.333 62.500 171.593 62.500 C 175.523 62.500,177.816 62.559,177.755 62.659 C 177.484 63.097,177.868 63.667,178.435 63.667 L 179.000 63.667 179.025 65.208 C 179.039 66.056,179.058 66.858,179.068 66.990 C 179.077 67.121,179.328 67.292,179.626 67.369 C 180.145 67.504,180.214 67.622,180.211 68.375 C 180.210 68.642,180.467 68.667,183.272 68.667 L 186.333 68.667 186.333 66.450 C 186.333 64.105,186.253 63.833,185.557 63.833 C 185.206 63.833,185.178 63.753,185.132 62.625 L 185.083 61.417 184.458 61.365 L 183.833 61.313 183.831 59.698 C 183.828 58.136,183.718 57.618,183.401 57.678 C 182.760 57.798,182.682 57.674,182.632 56.459 C 182.584 55.262,182.579 55.252,182.083 55.167 L 181.583 55.081 181.475 53.536 C 181.356 51.852,181.254 51.426,181.008 51.578 C 180.527 51.875,180.167 51.258,180.167 50.138 C 180.167 48.976,179.949 48.671,179.298 48.921 C 179.090 49.001,179.034 48.725,178.958 47.237 C 178.863 45.371,178.775 45.174,178.042 45.169 C 177.686 45.167,177.667 45.101,177.667 43.907 C 177.667 42.997,177.613 42.680,177.474 42.766 C 177.356 42.839,177.327 42.812,177.399 42.696 C 177.563 42.431,177.231 41.876,176.834 41.750 C 176.548 41.659,176.500 41.497,176.497 40.614 C 176.496 40.047,176.424 39.471,176.337 39.333 C 176.178 39.082,176.116 39.059,175.500 39.021 C 175.245 39.005,175.167 38.882,175.167 38.495 C 175.167 37.582,174.758 36.880,174.149 36.746 C 173.332 36.567,169.333 36.558,169.333 36.736 C 169.333 36.820,169.286 36.842,169.228 36.784 C 168.735 36.291,167.835 37.799,167.834 39.117 L 167.833 40.152 167.250 40.261 C 166.716 40.361,166.665 40.422,166.643 40.977 C 166.630 41.310,166.605 41.733,166.588 41.917 C 166.571 42.100,166.544 42.420,166.529 42.628 C 166.505 42.944,166.431 42.989,166.085 42.902 C 165.501 42.756,165.367 43.202,165.345 45.375 L 165.333 46.500 164.750 46.500 L 164.167 46.500 164.167 47.734 C 164.167 48.942,164.157 48.971,163.689 49.134 C 163.071 49.349,162.865 49.951,162.894 51.462 L 162.917 52.652 162.333 52.701 C 162.012 52.728,161.741 52.844,161.729 52.958 C 161.718 53.073,161.699 53.879,161.688 54.750 L 161.667 56.333 161.208 56.336 C 160.469 56.340,160.368 56.502,160.393 57.646 C 160.418 58.755,160.351 58.861,159.610 58.898 C 159.269 58.916,159.247 59.007,159.197 60.664 C 159.135 62.683,159.208 62.479,158.533 62.530 C 157.950 62.575,157.956 62.559,157.918 64.073 L 157.893 65.063 157.321 65.073 C 156.993 65.079,156.741 65.172,156.729 65.292 C 156.718 65.406,156.699 65.675,156.688 65.889 C 156.676 66.103,156.561 66.278,156.433 66.278 C 156.304 66.278,156.233 66.187,156.276 66.076 C 156.319 65.964,156.149 65.713,155.900 65.517 C 155.609 65.288,155.411 64.937,155.346 64.538 C 155.257 63.987,155.186 63.911,154.716 63.865 C 154.236 63.819,154.181 63.755,154.134 63.198 C 154.088 62.639,154.034 62.579,153.542 62.531 C 153.046 62.483,153.000 62.430,153.000 61.906 C 153.000 61.591,152.930 61.333,152.845 61.333 C 152.760 61.333,152.666 61.165,152.637 60.960 C 152.607 60.749,152.384 60.491,152.125 60.367 C 151.739 60.183,151.667 60.044,151.667 59.491 C 151.667 59.129,151.610 58.842,151.542 58.853 C 150.773 58.974,150.534 58.821,150.471 58.167 C 150.412 57.545,150.437 57.500,150.837 57.500 C 151.366 57.500,151.667 57.219,151.667 56.727 C 151.667 56.416,151.771 56.345,152.292 56.302 C 152.883 56.253,152.919 56.216,152.968 55.625 C 153.017 55.034,153.051 55.000,153.593 55.000 C 154.137 55.000,154.167 54.970,154.167 54.417 C 154.167 53.865,154.197 53.833,154.732 53.833 C 155.410 53.833,155.500 53.656,155.500 52.320 C 155.500 51.402,155.527 51.333,155.883 51.333 C 156.622 51.333,156.667 51.123,156.666 47.675 C 156.665 44.101,156.529 43.249,155.915 42.969 C 155.621 42.835,155.504 42.631,155.467 42.186 C 155.420 41.622,155.377 41.580,154.801 41.532 C 154.223 41.484,154.183 41.444,154.134 40.866 C 154.106 40.527,153.990 40.241,153.875 40.229 C 153.760 40.218,153.521 40.199,153.344 40.188 C 153.107 40.172,153.007 40.022,152.969 39.625 C 152.921 39.130,152.862 39.079,152.292 39.032 C 151.701 38.983,151.667 38.949,151.667 38.407 L 151.667 37.833 150.625 37.831 C 149.453 37.828,149.326 37.771,149.042 37.125 C 148.909 36.823,148.711 36.664,148.462 36.660 C 145.956 36.613,134.147 36.598,133.905 36.641 M189.109 36.706 C 189.003 36.773,188.982 36.829,189.062 36.831 C 189.142 36.832,189.124 36.934,189.022 37.057 C 188.888 37.218,188.836 41.679,188.837 52.974 L 188.838 68.667 191.596 68.667 C 195.433 68.667,195.000 69.558,195.000 61.661 L 195.000 55.000 201.833 55.000 L 208.667 55.000 208.667 61.633 C 208.667 66.570,208.718 68.318,208.867 68.467 C 209.007 68.607,209.930 68.667,211.950 68.667 L 214.833 68.667 214.831 52.875 C 214.829 44.190,214.763 36.981,214.684 36.856 C 214.494 36.555,210.092 36.516,209.542 36.811 C 208.698 37.262,208.694 37.303,208.679 44.292 L 208.667 50.167 201.375 50.150 C 197.365 50.141,194.271 50.081,194.500 50.018 L 194.917 49.902 194.961 44.082 C 195.019 36.378,195.148 36.658,191.492 36.611 C 190.287 36.596,189.215 36.638,189.109 36.706 M230.667 36.641 C 230.132 36.715,229.833 36.964,229.833 37.334 C 229.833 37.711,229.374 37.828,227.887 37.831 C 226.619 37.833,226.167 38.054,226.167 38.669 C 226.167 38.908,226.022 38.992,225.542 39.032 C 224.971 39.079,224.912 39.130,224.864 39.625 C 224.836 39.923,224.761 40.171,224.698 40.177 C 224.635 40.183,224.246 40.224,223.833 40.268 C 223.421 40.311,222.956 40.349,222.799 40.351 C 222.479 40.356,222.276 40.822,222.425 41.211 C 222.496 41.397,222.384 41.499,222.023 41.578 C 221.333 41.730,221.171 41.983,221.100 43.020 C 221.038 43.916,221.038 43.917,220.436 43.968 C 219.854 44.018,219.833 44.043,219.833 44.677 C 219.833 45.220,219.776 45.333,219.504 45.333 C 218.836 45.333,218.623 46.017,218.623 48.170 C 218.623 49.790,218.578 50.167,218.385 50.167 C 218.254 50.167,218.185 50.228,218.232 50.304 C 218.279 50.380,218.155 50.436,217.958 50.429 C 217.464 50.412,217.290 51.402,217.390 53.667 C 217.481 55.745,217.539 55.923,218.203 56.154 C 218.704 56.329,218.711 56.348,218.612 57.190 C 218.399 58.988,218.634 60.000,219.266 60.000 L 219.819 60.000 219.868 61.208 L 219.917 62.417 220.458 62.469 C 220.856 62.507,221.006 62.607,221.021 62.844 C 221.032 63.021,221.051 63.260,221.063 63.375 C 221.074 63.490,221.362 63.606,221.708 63.635 C 222.316 63.685,222.333 63.705,222.333 64.343 C 222.333 64.992,222.341 65.000,222.961 65.000 C 223.573 65.000,223.588 65.015,223.562 65.583 C 223.535 66.155,223.547 66.167,224.184 66.167 C 224.781 66.167,224.834 66.204,224.836 66.625 C 224.839 67.137,225.035 67.532,225.265 67.489 C 226.392 67.277,227.314 67.519,227.364 68.042 L 227.417 68.583 233.406 68.627 C 239.775 68.674,239.659 68.688,239.664 67.875 C 239.666 67.526,239.740 67.500,240.717 67.500 C 241.883 67.500,242.167 67.330,242.167 66.633 C 242.167 66.211,242.222 66.167,242.750 66.167 C 243.306 66.167,243.333 66.139,243.333 65.583 C 243.333 65.058,243.379 65.000,243.792 64.999 C 245.253 64.996,245.829 64.419,245.832 62.958 C 245.833 62.546,245.892 62.500,246.417 62.500 L 247.000 62.500 247.000 61.612 C 247.000 60.699,247.308 60.206,248.042 59.947 C 248.294 59.858,248.333 59.611,248.333 58.113 L 248.333 56.382 248.875 56.226 L 249.417 56.071 249.462 53.188 C 249.504 50.546,249.483 50.297,249.212 50.224 C 248.584 50.053,248.387 49.482,248.288 47.547 C 248.180 45.423,248.172 45.398,247.508 45.252 C 247.109 45.164,247.010 45.048,246.968 44.614 C 246.923 44.150,246.849 44.077,246.375 44.031 C 245.834 43.979,245.833 43.978,245.831 43.031 C 245.828 42.045,245.666 41.599,245.299 41.569 C 245.180 41.559,244.952 41.539,244.792 41.525 C 244.586 41.507,244.500 41.356,244.500 41.010 C 244.500 40.393,244.388 40.328,243.209 40.259 C 242.262 40.204,242.249 40.197,242.167 39.644 C 242.091 39.134,242.027 39.079,241.458 39.032 C 240.979 38.992,240.833 38.908,240.833 38.670 C 240.833 37.914,240.689 37.833,239.336 37.833 C 237.536 37.833,237.048 37.714,236.930 37.243 C 236.876 37.030,236.670 36.804,236.472 36.741 C 236.096 36.622,231.392 36.541,230.667 36.641 M252.990 36.692 C 252.440 36.803,252.175 37.065,252.168 37.500 C 252.166 37.637,252.156 42.719,252.147 48.792 C 252.128 60.729,252.102 60.352,252.993 60.830 C 253.266 60.976,253.327 61.213,253.368 62.294 L 253.417 63.583 253.949 63.635 C 254.431 63.682,254.486 63.744,254.532 64.302 C 254.579 64.861,254.632 64.921,255.125 64.969 C 255.491 65.004,255.673 65.112,255.686 65.302 C 255.696 65.457,255.715 65.696,255.728 65.833 C 255.742 65.996,255.965 66.101,256.366 66.134 C 256.944 66.183,256.984 66.223,257.032 66.801 C 257.080 67.381,257.119 67.420,257.708 67.468 C 258.182 67.508,258.333 67.593,258.333 67.823 C 258.333 68.563,258.524 68.583,265.317 68.583 L 271.750 68.583 271.802 68.042 C 271.854 67.503,271.859 67.500,272.772 67.500 C 273.952 67.500,274.333 67.295,274.333 66.661 C 274.333 66.207,274.381 66.167,274.917 66.167 C 275.483 66.167,275.500 66.147,275.500 65.523 C 275.500 64.938,275.536 64.886,275.890 64.954 C 276.368 65.045,276.862 64.595,276.824 64.104 C 276.722 62.793,276.813 62.523,277.375 62.469 L 277.917 62.417 277.962 59.704 C 278.004 57.261,278.041 56.959,278.337 56.663 C 278.856 56.144,278.852 39.053,278.333 38.583 C 278.119 38.389,277.999 38.068,277.997 37.683 C 277.993 36.635,277.931 36.608,275.522 36.618 C 273.139 36.628,272.306 36.882,272.197 37.633 C 272.167 37.835,272.076 38.000,271.993 38.000 C 271.905 38.000,271.840 42.546,271.836 48.936 C 271.829 59.990,271.818 60.260,271.400 60.100 C 270.955 59.929,270.667 60.188,270.667 60.758 C 270.667 61.279,270.629 61.316,270.042 61.365 C 269.488 61.411,269.416 61.468,269.409 61.869 C 269.399 62.471,269.406 62.468,268.165 62.529 L 267.083 62.583 266.927 63.214 C 266.820 63.650,266.700 63.818,266.539 63.756 C 266.411 63.707,265.870 63.667,265.336 63.667 C 264.419 63.667,264.357 63.641,264.200 63.191 C 264.011 62.650,263.489 62.505,261.708 62.502 L 260.667 62.500 260.667 61.917 C 260.667 61.361,260.639 61.333,260.083 61.333 L 259.500 61.333 259.500 60.347 C 259.500 59.101,258.999 57.833,258.506 57.833 C 258.168 57.833,258.167 57.782,258.164 47.458 C 258.162 38.033,258.110 36.607,257.773 36.652 C 257.715 36.660,257.610 36.658,257.542 36.648 C 257.014 36.571,253.414 36.606,252.990 36.692 M295.333 36.640 C 294.823 36.710,294.333 37.125,294.333 37.487 C 294.333 37.713,294.063 37.764,292.625 37.809 C 290.802 37.866,290.500 37.979,290.500 38.604 C 290.500 38.955,290.424 39.000,289.833 39.000 C 289.183 39.000,289.167 39.014,289.167 39.583 C 289.167 39.904,289.110 40.171,289.042 40.176 C 288.973 40.182,288.477 40.210,287.940 40.239 C 287.341 40.271,286.906 40.380,286.817 40.521 C 286.627 40.821,286.627 41.044,286.818 40.926 C 286.901 40.875,286.930 40.983,286.882 41.166 C 286.828 41.373,286.644 41.508,286.397 41.521 C 286.179 41.532,285.913 41.551,285.806 41.563 C 285.699 41.574,285.581 41.806,285.545 42.079 C 285.458 42.726,285.218 42.999,284.775 42.953 C 284.503 42.926,284.407 43.017,284.376 43.333 C 284.188 45.281,284.256 45.121,283.580 45.211 L 283.083 45.277 283.029 46.735 C 282.973 48.215,282.806 48.616,282.138 48.873 C 281.713 49.036,281.513 53.641,281.810 56.417 C 281.915 57.397,281.927 57.418,282.458 57.469 L 283.000 57.521 283.021 59.094 C 283.032 59.959,283.051 60.758,283.063 60.870 C 283.074 60.981,283.346 61.150,283.667 61.245 C 284.136 61.383,284.248 61.498,284.242 61.833 C 284.232 62.332,284.428 62.494,285.042 62.497 C 285.457 62.500,285.502 62.559,285.516 63.125 C 285.557 64.667,285.580 64.708,286.542 64.910 C 286.794 64.963,287.000 65.106,287.000 65.227 C 287.000 65.629,287.642 66.038,288.410 66.125 C 289.141 66.207,289.167 66.229,289.167 66.772 C 289.167 67.081,289.242 67.343,289.333 67.354 C 289.425 67.366,289.575 67.394,289.667 67.417 C 289.758 67.440,290.241 67.468,290.739 67.479 C 291.635 67.500,291.646 67.506,291.698 68.042 L 291.750 68.583 297.833 68.583 L 303.917 68.583 303.969 68.042 L 304.021 67.500 305.011 67.500 C 305.555 67.500,306.048 67.506,306.106 67.514 C 306.298 67.540,306.495 67.092,306.497 66.625 C 306.500 66.182,306.530 66.167,307.403 66.167 C 308.492 66.167,308.833 66.053,308.836 65.691 C 308.840 65.221,309.115 64.951,309.608 64.934 L 310.083 64.917 310.083 58.167 L 310.083 51.417 302.375 51.379 C 297.448 51.355,294.667 51.400,294.667 51.504 C 294.667 51.593,294.573 51.648,294.458 51.625 C 294.216 51.576,294.148 57.037,294.389 57.278 C 294.465 57.354,296.659 57.439,299.264 57.466 L 304.000 57.515 304.000 59.424 L 304.000 61.333 303.417 61.333 C 302.861 61.333,302.833 61.361,302.833 61.917 L 302.833 62.500 301.375 62.520 C 300.573 62.531,299.823 62.527,299.708 62.512 C 299.594 62.498,299.500 62.568,299.500 62.669 C 299.500 62.770,299.425 62.807,299.333 62.750 C 299.235 62.689,299.167 62.876,299.167 63.208 L 299.167 63.769 297.958 63.761 C 296.695 63.753,296.507 63.660,296.503 63.042 C 296.501 62.835,296.406 62.655,296.292 62.641 C 296.177 62.627,296.008 62.598,295.917 62.577 C 295.825 62.556,295.094 62.530,294.292 62.519 L 292.833 62.500 292.833 61.917 C 292.833 61.363,292.804 61.333,292.260 61.333 C 291.718 61.333,291.684 61.299,291.635 60.708 C 291.586 60.115,291.554 60.083,291.000 60.083 C 290.460 60.083,290.410 60.040,290.333 59.500 C 290.260 58.984,290.187 58.911,289.708 58.864 L 289.167 58.812 289.167 57.253 C 289.167 55.357,289.104 55.167,288.482 55.167 L 288.000 55.167 288.000 53.271 L 288.000 51.375 288.478 51.279 C 289.068 51.161,289.161 50.857,289.164 49.052 L 289.167 47.688 289.708 47.636 C 290.203 47.588,290.255 47.529,290.302 46.958 C 290.351 46.369,290.386 46.333,290.919 46.333 C 291.432 46.333,291.495 46.280,291.593 45.759 C 291.685 45.265,291.773 45.178,292.225 45.134 C 292.683 45.090,292.757 45.014,292.802 44.542 C 292.854 44.003,292.859 44.000,293.772 44.000 C 294.952 44.000,295.333 43.795,295.333 43.161 L 295.333 42.667 297.833 42.667 C 300.215 42.667,300.334 42.682,300.354 43.000 C 300.396 43.663,300.422 43.718,300.750 43.846 C 300.933 43.918,301.472 43.982,301.948 43.988 C 302.798 44.000,302.813 44.009,302.864 44.542 C 302.911 45.020,302.984 45.093,303.500 45.167 C 303.936 45.229,304.088 45.334,304.100 45.583 C 304.110 45.767,304.128 46.005,304.142 46.112 C 304.160 46.253,304.810 46.300,306.458 46.279 L 308.750 46.250 308.907 45.716 C 309.034 45.286,309.163 45.173,309.574 45.133 L 310.083 45.083 310.083 43.333 C 310.083 42.056,310.027 41.578,309.875 41.563 C 309.760 41.551,309.528 41.532,309.357 41.521 C 309.162 41.508,308.993 41.306,308.897 40.974 C 308.739 40.421,308.630 40.372,307.333 40.267 C 306.605 40.208,306.582 40.189,306.532 39.603 C 306.482 39.021,306.457 39.000,305.823 39.000 C 305.208 39.000,305.167 38.969,305.167 38.510 C 305.167 37.865,305.195 37.874,303.125 37.808 C 301.404 37.752,301.334 37.735,301.333 37.381 C 301.333 37.175,301.176 36.928,300.978 36.822 C 300.646 36.644,296.324 36.505,295.333 36.640 M313.304 36.674 C 312.819 36.788,312.872 34.946,312.829 53.167 L 312.793 68.583 322.605 68.583 L 332.417 68.583 332.463 66.208 C 332.515 63.553,332.643 63.834,331.333 63.741 C 331.104 63.725,328.198 63.701,324.875 63.689 L 318.833 63.667 318.833 50.354 C 318.833 38.718,318.802 37.015,318.583 36.833 C 318.324 36.618,314.082 36.490,313.304 36.674 M345.320 36.643 C 345.212 36.679,344.923 36.935,344.676 37.211 C 344.258 37.679,344.124 37.720,342.738 37.815 L 341.250 37.917 341.252 38.458 L 341.253 39.000 340.168 39.020 C 339.572 39.031,339.027 39.031,338.958 39.020 C 338.890 39.009,338.827 39.056,338.819 39.125 C 338.812 39.194,338.787 39.419,338.764 39.625 C 338.710 40.112,338.634 40.177,338.061 40.220 C 337.639 40.251,337.577 40.327,337.532 40.868 C 337.484 41.443,337.443 41.484,336.866 41.532 C 336.465 41.565,336.242 41.671,336.228 41.833 C 336.215 41.971,336.196 42.236,336.186 42.422 C 336.171 42.682,336.060 42.756,335.708 42.739 C 335.160 42.712,335.006 42.904,335.003 43.620 C 335.001 44.035,334.942 44.134,334.742 44.057 C 334.595 44.001,334.375 44.092,334.230 44.271 C 334.090 44.443,334.030 44.478,334.097 44.349 C 334.170 44.208,334.151 44.157,334.048 44.221 C 333.954 44.279,333.861 44.796,333.840 45.371 C 333.789 46.850,333.792 46.827,333.640 46.734 C 333.565 46.687,333.380 46.718,333.229 46.802 C 332.600 47.153,332.537 47.767,332.561 53.266 L 332.583 58.583 333.110 58.739 C 333.681 58.907,333.833 59.285,333.833 60.529 C 333.833 61.327,334.205 62.094,334.649 62.210 C 334.891 62.274,334.992 62.465,335.031 62.940 C 335.079 63.531,335.127 63.588,335.625 63.636 C 335.923 63.664,336.178 63.777,336.191 63.886 C 336.205 63.994,336.231 64.196,336.250 64.333 C 336.269 64.471,336.295 64.677,336.309 64.792 C 336.323 64.914,336.574 65.000,336.917 65.000 C 337.472 65.000,337.500 65.028,337.500 65.583 C 337.500 66.135,337.530 66.167,338.065 66.167 C 338.601 66.167,338.947 66.615,338.804 67.124 C 338.757 67.292,339.564 67.456,340.559 67.480 C 341.223 67.496,341.351 67.547,341.268 67.762 C 340.930 68.643,340.992 68.652,347.877 68.659 C 354.581 68.666,354.554 68.668,354.722 67.982 C 354.816 67.595,354.933 67.534,355.778 67.435 C 356.864 67.307,357.167 67.120,357.167 66.573 C 357.167 66.247,357.264 66.179,357.792 66.135 C 358.362 66.088,358.421 66.036,358.469 65.542 C 358.514 65.071,358.583 65.000,358.990 65.000 C 359.443 65.000,359.872 64.686,359.819 64.393 C 359.730 63.896,359.865 63.667,360.244 63.667 C 360.777 63.667,361.000 63.230,361.000 62.188 C 361.000 61.369,361.010 61.354,361.542 61.302 C 362.047 61.253,362.087 61.204,362.134 60.561 C 362.178 59.950,362.239 59.861,362.667 59.775 C 363.458 59.617,363.526 59.009,363.468 52.679 C 363.413 46.642,363.392 46.500,362.563 46.500 C 362.212 46.500,362.167 46.424,362.167 45.833 C 362.167 45.183,362.153 45.167,361.583 45.167 L 361.000 45.167 361.000 44.000 C 361.000 43.188,360.937 42.827,360.792 42.814 C 360.677 42.804,360.508 42.777,360.417 42.756 C 360.325 42.735,360.156 42.706,360.042 42.692 C 359.927 42.678,359.833 42.494,359.833 42.283 C 359.833 41.771,359.533 41.500,358.967 41.500 C 358.544 41.500,358.500 41.444,358.500 40.917 C 358.500 40.574,358.414 40.323,358.292 40.309 C 358.177 40.295,357.971 40.269,357.833 40.250 C 357.696 40.231,357.492 40.205,357.380 40.191 C 357.269 40.178,357.218 40.060,357.268 39.930 C 357.501 39.323,357.034 39.000,355.921 39.000 L 354.854 39.000 354.802 38.458 C 354.754 37.954,354.704 37.914,354.083 37.877 C 351.510 37.722,351.000 37.636,350.997 37.361 C 350.991 36.672,350.802 36.622,348.108 36.600 C 346.682 36.588,345.427 36.608,345.320 36.643 M89.097 36.812 C 88.983 36.995,89.465 37.424,89.615 37.274 C 89.674 37.215,89.630 37.167,89.518 37.167 C 89.406 37.167,89.357 37.097,89.410 37.012 C 89.462 36.926,89.434 36.812,89.348 36.759 C 89.261 36.705,89.148 36.729,89.097 36.812 M146.864 43.208 C 146.916 43.741,146.935 43.753,148.000 43.899 C 148.596 43.981,149.099 44.059,149.119 44.074 C 149.139 44.088,149.202 44.546,149.260 45.091 C 149.390 46.310,149.404 46.333,150.010 46.333 L 150.500 46.333 150.500 47.670 C 150.500 49.000,150.498 49.006,150.097 48.905 C 149.507 48.757,149.163 49.364,149.212 50.465 C 149.255 51.426,149.362 51.356,147.833 51.365 C 147.013 51.371,146.840 51.517,146.836 52.208 L 146.833 52.667 143.083 52.667 L 139.333 52.667 139.333 47.667 L 139.333 42.667 143.073 42.667 L 146.812 42.667 146.864 43.208 M236.000 43.231 C 236.000 43.876,236.237 43.994,237.534 43.998 C 238.298 44.000,238.321 44.015,238.428 44.583 C 238.527 45.114,238.588 45.167,239.102 45.167 C 239.549 45.167,239.671 45.236,239.688 45.500 C 239.699 45.683,239.718 45.927,239.729 46.042 C 239.741 46.156,240.012 46.288,240.333 46.333 C 240.873 46.410,240.917 46.460,240.917 47.000 C 240.917 47.554,240.948 47.586,241.542 47.635 L 242.167 47.687 242.184 49.718 C 242.194 50.836,242.199 52.313,242.195 53.000 C 242.192 53.688,242.184 55.281,242.178 56.542 L 242.167 58.833 241.595 58.833 C 241.018 58.833,240.667 59.263,240.916 59.666 C 241.024 59.841,240.831 59.947,240.250 60.034 C 239.819 60.098,239.672 60.310,239.669 60.875 C 239.667 61.287,239.608 61.333,239.083 61.333 C 238.507 61.333,238.470 61.377,238.434 62.083 C 238.418 62.388,238.283 62.421,236.875 62.465 C 236.027 62.491,235.333 62.585,235.333 62.673 C 235.333 62.761,235.243 62.815,235.133 62.792 C 235.022 62.769,234.926 62.825,234.920 62.917 C 234.882 63.452,234.545 63.624,233.375 63.705 L 232.167 63.789 232.167 63.317 C 232.167 62.849,231.737 62.455,231.290 62.513 C 231.176 62.528,230.502 62.531,229.792 62.520 L 228.500 62.500 228.500 61.917 C 228.500 61.349,228.483 61.333,227.843 61.333 C 227.205 61.333,227.185 61.316,227.135 60.708 C 227.088 60.138,227.040 60.083,226.583 60.078 C 226.094 60.073,226.082 60.052,225.999 59.078 C 225.907 57.989,225.744 57.601,225.426 57.723 C 224.918 57.918,224.843 57.554,224.828 54.826 C 224.796 48.783,224.800 48.700,225.159 48.586 C 225.579 48.453,226.000 47.603,226.000 46.891 C 226.000 46.365,226.033 46.333,226.583 46.333 C 227.137 46.333,227.167 46.304,227.167 45.760 C 227.167 45.218,227.201 45.184,227.792 45.135 C 228.362 45.088,228.421 45.036,228.469 44.542 C 228.520 44.015,228.543 44.000,229.302 43.998 C 230.545 43.994,230.812 43.869,230.931 43.232 L 231.037 42.667 233.519 42.667 L 236.000 42.667 236.000 43.231 M349.924 43.208 C 350.078 43.734,350.120 43.755,351.292 43.903 C 352.394 44.043,352.500 44.090,352.500 44.437 C 352.500 44.856,353.258 45.164,354.292 45.166 C 354.830 45.167,354.833 45.171,354.833 46.000 C 354.833 46.458,354.900 46.833,354.981 46.833 C 355.063 46.833,355.119 46.965,355.106 47.125 C 355.090 47.327,355.225 47.433,355.542 47.469 C 355.794 47.498,356.007 47.611,356.016 47.719 C 356.025 47.828,356.043 48.349,356.058 48.877 C 356.082 49.799,356.624 50.634,357.215 50.661 C 357.288 50.664,357.337 51.745,357.324 53.064 C 357.304 55.202,357.272 55.453,357.026 55.395 C 356.658 55.307,356.405 55.499,356.255 55.979 C 356.158 56.288,356.181 56.345,356.357 56.239 C 356.528 56.136,356.524 56.176,356.340 56.402 C 356.200 56.575,356.082 57.122,356.062 57.699 C 356.020 58.853,356.053 58.792,355.426 58.876 C 354.979 58.936,354.937 59.002,354.874 59.753 C 354.784 60.825,354.323 61.326,353.417 61.333 C 352.615 61.340,352.435 61.453,352.359 62.000 C 352.327 62.229,352.289 62.429,352.275 62.444 C 352.261 62.458,351.725 62.496,351.083 62.527 C 350.195 62.570,349.911 62.643,349.894 62.833 C 349.882 62.971,349.863 63.236,349.853 63.422 C 349.824 63.921,346.167 63.951,346.167 63.452 C 346.167 62.699,345.874 62.500,344.768 62.500 C 343.723 62.500,343.714 62.496,343.560 61.958 C 343.407 61.424,343.391 61.416,342.286 61.367 L 341.167 61.318 341.164 60.534 C 341.161 59.348,341.019 58.995,340.503 58.892 C 340.083 58.808,340.037 58.717,339.899 57.697 C 339.756 56.641,339.727 56.587,339.208 56.439 L 338.667 56.285 338.667 52.922 C 338.667 49.283,338.704 49.134,339.708 48.780 C 339.949 48.695,340.000 48.471,340.000 47.505 L 340.000 46.333 340.583 46.333 C 341.139 46.333,341.167 46.306,341.167 45.750 C 341.167 45.194,341.194 45.167,341.750 45.167 C 342.306 45.167,342.333 45.139,342.333 44.583 L 342.333 44.000 343.375 43.999 C 344.912 43.998,345.667 43.744,345.889 43.153 L 346.073 42.667 347.919 42.667 L 349.764 42.667 349.924 43.208 M172.429 47.667 C 172.823 47.667,172.833 47.700,172.833 48.989 C 172.833 50.637,173.013 51.167,173.572 51.167 C 173.973 51.167,173.988 51.207,174.035 52.458 L 174.083 53.750 174.625 53.802 C 175.107 53.849,175.169 53.913,175.185 54.386 C 175.258 56.507,175.344 57.094,175.613 57.292 C 175.843 57.460,175.131 57.500,171.865 57.500 L 167.833 57.500 167.833 56.261 L 167.833 55.021 168.375 54.969 L 168.917 54.917 168.964 53.125 L 169.011 51.333 169.571 51.333 C 170.243 51.333,170.333 51.154,170.333 49.820 C 170.333 48.882,170.354 48.833,170.744 48.833 C 171.225 48.833,171.500 48.409,171.500 47.666 C 171.500 47.190,171.524 47.167,171.762 47.405 C 171.906 47.549,172.206 47.667,172.429 47.667 M56.930 56.645 C 56.817 56.828,57.298 57.258,57.448 57.107 C 57.507 57.048,57.464 57.000,57.351 57.000 C 57.239 57.000,57.190 56.930,57.243 56.845 C 57.296 56.760,57.268 56.646,57.181 56.592 C 57.094 56.538,56.981 56.562,56.930 56.645 " stroke="none" fill="#7c7c7c" fill-rule="evenodd"></path><path id="path1" d="M83.336 5.615 C 82.538 5.695,82.340 5.862,82.336 6.458 C 82.334 6.797,82.252 6.833,81.500 6.833 C 81.042 6.833,80.667 6.900,80.667 6.981 C 80.667 7.063,80.535 7.119,80.375 7.106 C 80.161 7.089,80.085 7.205,80.090 7.542 L 80.096 8.000 78.007 8.017 C 75.359 8.038,75.099 8.106,75.031 8.794 L 74.980 9.325 72.535 9.371 L 70.090 9.417 70.054 9.894 C 70.004 10.536,70.182 10.493,67.548 10.510 C 64.953 10.527,64.131 10.749,64.030 11.458 C 63.978 11.825,63.927 11.834,61.780 11.845 C 58.599 11.861,57.833 12.042,57.833 12.776 C 57.833 12.954,57.309 13.000,55.292 13.001 C 52.620 13.001,51.667 13.241,51.667 13.914 C 51.667 14.105,51.469 14.167,50.854 14.167 C 49.322 14.167,49.000 14.300,49.000 14.938 L 49.000 15.500 47.875 15.520 C 47.256 15.531,46.694 15.531,46.625 15.520 C 46.556 15.509,46.500 15.762,46.500 16.083 L 46.500 16.667 45.678 16.667 C 44.718 16.667,43.973 16.908,44.012 17.207 C 44.097 17.857,43.992 18.000,43.434 18.000 C 42.859 18.000,42.667 18.210,42.667 18.836 C 42.667 19.063,42.523 19.159,42.125 19.198 C 41.630 19.245,41.579 19.304,41.532 19.875 C 41.483 20.466,41.449 20.500,40.907 20.500 C 40.363 20.500,40.333 20.530,40.333 21.083 C 40.333 21.653,40.317 21.667,39.667 21.667 C 39.016 21.667,39.000 21.681,39.000 22.250 C 39.000 22.714,38.935 22.833,38.680 22.833 C 38.043 22.833,37.833 23.023,37.833 23.601 C 37.833 24.133,37.800 24.167,37.268 24.167 C 36.590 24.167,36.500 24.344,36.500 25.680 L 36.500 26.667 35.917 26.667 L 35.333 26.667 35.333 27.917 L 35.333 29.167 34.768 29.167 C 34.090 29.167,34.000 29.344,34.000 30.680 C 34.000 31.348,33.933 31.673,33.792 31.686 C 33.677 31.696,33.471 31.715,33.333 31.728 C 33.196 31.740,33.102 31.844,33.125 31.958 C 33.148 32.073,33.094 32.167,33.006 32.167 C 32.786 32.167,32.770 47.608,32.990 47.744 C 33.079 47.799,33.119 47.935,33.078 48.047 C 32.972 48.335,33.194 48.618,33.583 48.690 C 33.830 48.737,33.928 48.903,33.959 49.335 C 34.089 51.129,34.146 51.282,34.690 51.297 C 35.342 51.316,35.300 51.238,35.347 52.500 C 35.390 53.632,35.504 53.827,36.125 53.831 C 36.442 53.833,36.500 53.924,36.500 54.417 C 36.500 54.737,36.568 55.000,36.651 55.000 C 36.734 55.000,36.763 55.150,36.715 55.334 C 36.620 55.696,36.930 56.185,37.231 56.149 C 37.702 56.093,37.817 56.209,37.865 56.792 C 37.912 57.362,37.964 57.421,38.458 57.469 C 38.951 57.516,39.000 57.572,39.000 58.076 C 39.000 58.662,39.210 58.833,39.930 58.833 C 40.264 58.833,40.333 58.917,40.333 59.316 C 40.333 59.806,40.574 60.000,41.180 60.000 C 41.424 60.000,41.500 60.118,41.500 60.494 C 41.500 61.019,41.870 61.333,42.489 61.333 C 42.758 61.333,42.833 61.439,42.833 61.816 C 42.833 62.394,43.055 62.500,44.264 62.500 C 44.865 62.500,45.173 62.569,45.184 62.708 C 45.194 62.823,45.213 63.067,45.226 63.250 C 45.245 63.510,45.388 63.595,45.875 63.635 C 46.284 63.669,46.500 63.770,46.500 63.927 C 46.500 64.059,46.579 64.167,46.677 64.167 C 46.774 64.167,46.812 64.233,46.762 64.314 C 46.627 64.533,47.123 64.886,47.409 64.776 C 47.545 64.724,47.700 64.753,47.754 64.841 C 47.809 64.928,48.374 65.000,49.010 65.000 C 50.039 65.000,50.167 65.035,50.167 65.320 C 50.167 66.120,50.272 66.167,52.101 66.167 C 53.786 66.167,53.833 66.177,53.836 66.542 C 53.842 67.439,53.652 67.413,60.568 67.464 C 67.560 67.516,68.011 67.463,68.415 66.542 C 68.566 66.197,68.689 66.167,69.928 66.167 C 70.671 66.167,71.334 66.110,71.403 66.042 C 71.472 65.973,71.690 65.917,71.889 65.917 C 72.087 65.917,72.259 65.823,72.271 65.708 C 72.282 65.594,72.301 65.387,72.313 65.250 C 72.328 65.066,72.543 64.999,73.125 64.998 C 73.855 64.995,74.781 64.695,74.661 64.500 C 74.475 64.195,75.063 63.667,75.589 63.667 C 76.138 63.667,76.167 63.638,76.167 63.083 L 76.167 62.500 77.141 62.500 C 78.162 62.500,78.667 62.206,78.667 61.612 C 78.667 61.448,78.799 61.333,78.986 61.333 C 79.620 61.333,79.833 61.143,79.833 60.576 C 79.833 60.054,79.871 60.017,80.458 59.968 C 81.026 59.921,81.088 59.868,81.135 59.385 C 81.180 58.922,81.255 58.846,81.718 58.801 C 82.201 58.755,82.255 58.693,82.302 58.125 C 82.351 57.535,82.385 57.500,82.924 57.500 C 83.410 57.500,83.508 57.433,83.594 57.042 C 83.761 56.278,83.825 56.142,83.972 56.232 C 84.406 56.501,84.833 55.802,84.833 54.824 L 84.833 53.833 85.417 53.833 L 86.000 53.833 86.000 52.593 L 86.000 51.353 86.625 51.302 L 87.250 51.250 87.299 50.042 C 87.342 48.979,87.387 48.831,87.674 48.813 C 87.853 48.801,88.094 48.782,88.208 48.771 C 88.363 48.755,88.429 48.096,88.463 46.225 C 88.508 43.724,88.512 43.700,88.904 43.601 C 89.509 43.449,89.649 42.758,89.635 39.970 C 89.625 37.829,89.580 37.394,89.345 37.176 C 89.144 36.988,89.138 36.962,89.325 37.083 C 89.553 37.230,89.555 37.214,89.345 36.947 C 89.210 36.775,88.975 36.678,88.803 36.723 C 88.520 36.797,88.500 36.635,88.500 34.234 C 88.500 31.683,88.498 31.667,88.125 31.664 C 87.457 31.660,87.354 31.462,87.319 30.114 C 87.267 28.164,87.220 28.025,86.565 27.902 C 86.015 27.799,86.000 27.774,86.000 26.991 C 86.000 26.549,85.924 26.139,85.831 26.082 C 85.737 26.024,85.705 25.906,85.758 25.820 C 85.812 25.733,85.629 25.618,85.353 25.562 C 84.919 25.475,84.844 25.381,84.801 24.856 C 84.755 24.307,84.699 24.245,84.208 24.198 C 83.742 24.153,83.667 24.082,83.667 23.689 C 83.667 23.107,83.389 22.833,82.800 22.833 C 82.378 22.833,82.333 22.778,82.333 22.250 C 82.333 21.694,82.306 21.667,81.750 21.667 C 81.194 21.667,81.167 21.639,81.167 21.083 C 81.167 20.514,81.151 20.500,80.500 20.500 L 79.833 20.500 79.833 19.833 C 79.833 19.187,79.816 19.167,79.268 19.167 C 78.746 19.167,78.698 19.122,78.635 18.583 C 78.576 18.074,78.613 18.000,78.931 18.000 C 79.136 18.000,79.577 17.711,79.939 17.339 L 80.583 16.678 83.030 16.657 C 85.284 16.637,85.501 16.607,85.780 16.289 C 85.947 16.098,85.984 16.001,85.863 16.072 C 85.680 16.179,85.680 16.141,85.861 15.851 C 85.999 15.630,86.253 15.500,86.547 15.500 C 86.804 15.500,87.105 15.425,87.215 15.333 C 87.326 15.242,87.591 15.034,87.805 14.871 C 88.283 14.507,88.311 14.264,88.399 9.775 C 88.471 6.108,88.413 5.791,87.653 5.691 C 86.980 5.603,83.985 5.550,83.336 5.615 M52.286 13.717 C 52.083 13.928,51.886 14.078,51.848 14.051 C 51.751 13.981,52.357 13.333,52.520 13.333 C 52.594 13.333,52.489 13.506,52.286 13.717 M65.225 23.090 C 65.091 23.437,65.663 24.040,66.035 23.943 C 66.199 23.900,66.375 23.933,66.426 24.016 C 66.478 24.099,66.995 24.167,67.575 24.167 C 68.675 24.167,68.833 24.273,68.833 25.014 C 68.833 25.281,68.955 25.333,69.583 25.333 C 70.110 25.333,70.333 25.402,70.333 25.564 C 70.333 25.937,71.428 26.667,71.989 26.667 C 72.462 26.667,72.500 26.710,72.500 27.250 C 72.500 27.806,72.528 27.833,73.083 27.833 C 73.639 27.833,73.667 27.861,73.667 28.417 C 73.667 28.986,73.683 29.000,74.333 29.000 L 75.000 29.000 75.000 30.250 L 75.000 31.500 75.576 31.500 L 76.152 31.500 76.201 32.708 L 76.250 33.917 76.792 33.969 C 77.216 34.010,77.337 34.100,77.349 34.386 C 77.469 37.169,77.353 45.243,77.193 45.297 C 77.086 45.333,77.034 45.420,77.078 45.492 C 77.123 45.564,76.992 45.763,76.788 45.936 L 76.417 46.250 76.734 45.875 C 76.909 45.669,76.974 45.500,76.880 45.500 C 76.470 45.500,76.265 46.097,76.199 47.474 L 76.130 48.918 75.607 48.917 C 75.122 48.917,75.079 48.963,75.032 49.542 C 74.983 50.135,74.950 50.167,74.397 50.167 C 74.050 50.167,73.855 50.234,73.917 50.333 C 73.973 50.425,73.940 50.500,73.843 50.500 C 73.746 50.500,73.667 50.725,73.667 51.000 C 73.667 51.453,73.520 51.588,73.107 51.514 C 72.832 51.464,72.500 51.878,72.500 52.270 C 72.500 52.569,72.408 52.667,72.125 52.669 C 71.609 52.673,71.266 52.919,71.377 53.207 C 71.523 53.587,71.294 53.800,70.665 53.872 C 70.345 53.909,70.074 54.027,70.063 54.136 C 70.051 54.245,70.032 54.478,70.021 54.655 C 70.002 54.943,68.505 55.341,67.963 55.201 C 67.771 55.151,67.466 55.837,67.565 56.096 C 67.638 56.287,67.432 56.333,66.508 56.333 C 65.281 56.333,64.413 56.668,64.238 57.208 C 64.153 57.473,63.843 57.500,60.898 57.500 L 57.652 57.500 57.201 57.054 C 56.953 56.808,56.900 56.715,57.083 56.845 C 57.394 57.067,57.400 57.063,57.178 56.780 C 57.043 56.608,56.808 56.511,56.637 56.556 C 56.470 56.600,56.333 56.567,56.333 56.484 C 56.333 56.401,55.776 56.333,55.094 56.333 L 53.854 56.333 53.802 55.792 C 53.750 55.251,53.749 55.250,52.551 55.110 C 51.361 54.972,51.352 54.967,51.301 54.444 C 51.257 53.984,51.181 53.910,50.708 53.864 C 50.373 53.832,50.167 53.721,50.167 53.573 C 50.167 52.989,49.845 52.667,49.262 52.667 C 48.841 52.667,48.726 52.410,48.825 51.692 C 48.842 51.568,48.781 51.513,48.689 51.569 C 48.598 51.626,48.476 51.596,48.418 51.503 C 48.361 51.410,48.173 51.333,48.001 51.333 C 47.769 51.333,47.674 51.192,47.636 50.792 C 47.590 50.320,47.516 50.243,47.062 50.199 C 46.560 50.150,46.537 50.114,46.433 49.199 C 46.303 48.063,46.221 47.918,45.625 47.772 C 45.187 47.665,45.167 47.615,45.167 46.640 C 45.167 45.574,44.934 45.184,44.292 45.172 C 43.952 45.166,43.827 35.188,44.167 35.146 C 44.258 35.134,44.402 35.116,44.486 35.104 C 44.570 35.093,44.701 35.021,44.778 34.944 C 44.854 34.868,44.926 34.737,44.938 34.653 C 44.949 34.569,44.977 34.462,45.000 34.417 C 45.101 34.215,45.126 33.925,45.146 32.750 L 45.167 31.500 45.740 31.500 C 46.419 31.500,46.471 31.437,46.524 30.536 C 46.550 30.083,46.625 29.892,46.741 29.980 C 47.095 30.248,47.502 29.551,47.629 28.458 C 47.697 27.873,47.738 27.833,48.268 27.833 C 48.800 27.833,48.833 27.800,48.833 27.267 C 48.833 26.715,48.854 26.698,49.625 26.606 C 50.060 26.555,50.567 26.482,50.750 26.444 C 50.933 26.407,51.140 26.366,51.208 26.355 C 51.277 26.343,51.333 26.108,51.333 25.833 C 51.333 25.376,51.382 25.333,51.899 25.333 C 52.471 25.333,52.667 25.123,52.667 24.507 C 52.667 24.252,52.865 24.195,54.042 24.116 C 55.891 23.992,56.083 23.940,56.083 23.567 C 56.083 22.868,56.227 22.846,60.870 22.840 C 64.809 22.834,65.312 22.863,65.225 23.090 M80.320 65.458 C 80.132 65.706,80.134 65.719,80.333 65.542 C 80.611 65.294,80.896 65.264,80.751 65.498 C 80.692 65.594,80.763 65.619,80.922 65.558 C 81.140 65.475,81.150 65.425,80.972 65.313 C 80.655 65.111,80.568 65.131,80.320 65.458 M91.456 65.266 C 91.304 65.418,91.513 65.845,91.687 65.738 C 91.770 65.686,91.788 65.562,91.727 65.463 C 91.656 65.347,91.694 65.331,91.833 65.417 C 91.978 65.506,92.011 65.486,91.933 65.359 C 91.802 65.148,91.611 65.111,91.456 65.266 M79.872 68.167 C 79.872 68.487,79.906 68.619,79.948 68.458 C 79.990 68.298,79.990 68.035,79.948 67.875 C 79.906 67.715,79.872 67.846,79.872 68.167 M47.222 71.728 C 47.222 71.878,47.289 72.000,47.371 72.000 C 47.453 72.000,47.483 72.060,47.438 72.133 C 47.392 72.206,47.424 72.375,47.508 72.508 C 47.630 72.701,47.662 72.680,47.664 72.407 C 47.666 72.218,47.567 71.927,47.444 71.760 C 47.252 71.497,47.222 71.492,47.222 71.728 M90.582 75.276 C 90.627 75.337,90.579 75.488,90.475 75.614 C 90.371 75.739,90.334 75.890,90.393 75.948 C 90.452 76.007,90.500 75.964,90.500 75.851 C 90.500 75.739,90.568 75.689,90.652 75.741 C 90.826 75.849,90.792 75.389,90.616 75.255 C 90.552 75.206,90.537 75.216,90.582 75.276 M50.293 77.625 C 50.261 77.694,50.438 77.946,50.688 78.185 C 51.071 78.553,51.139 78.573,51.120 78.318 C 51.107 78.151,51.063 78.048,51.022 78.089 C 50.895 78.216,50.498 77.805,50.595 77.648 C 50.645 77.567,50.611 77.500,50.520 77.500 C 50.428 77.500,50.326 77.556,50.293 77.625 M51.500 78.816 C 51.500 78.897,51.619 79.010,51.764 79.066 C 52.122 79.203,52.167 79.195,52.167 78.990 C 52.167 78.893,52.092 78.860,52.000 78.917 C 51.908 78.973,51.833 78.940,51.833 78.843 C 51.833 78.746,51.758 78.667,51.667 78.667 C 51.575 78.667,51.500 78.734,51.500 78.816 M52.183 79.397 C 52.037 79.573,52.044 79.648,52.212 79.712 C 52.343 79.762,52.441 79.669,52.456 79.482 C 52.484 79.106,52.437 79.091,52.183 79.397 M72.753 80.162 C 72.621 80.375,72.894 80.502,73.147 80.346 C 73.314 80.242,73.305 80.191,73.103 80.114 C 72.960 80.059,72.803 80.081,72.753 80.162 M67.707 82.583 C 67.775 82.658,67.745 82.822,67.641 82.947 C 67.538 83.072,67.495 83.217,67.546 83.268 C 67.598 83.320,67.721 83.210,67.820 83.024 C 67.955 82.772,67.948 82.657,67.792 82.567 C 67.677 82.501,67.639 82.508,67.707 82.583 M54.262 92.447 C 54.127 92.796,54.130 92.802,54.503 93.002 C 54.891 93.209,55.232 93.071,55.047 92.780 C 54.978 92.672,54.921 92.515,54.919 92.433 C 54.915 92.174,54.362 92.186,54.262 92.447 M71.910 93.011 C 71.849 93.109,71.840 93.229,71.889 93.278 C 72.008 93.397,72.333 93.187,72.333 92.990 C 72.333 92.777,72.046 92.791,71.910 93.011 " stroke="none" fill="#dc3404" fill-rule="evenodd"></path><path id="path2" d="M117.296 36.622 C 117.688 36.657,118.288 36.657,118.629 36.621 C 118.971 36.585,118.650 36.557,117.917 36.557 C 117.183 36.558,116.904 36.587,117.296 36.622 M138.053 36.625 C 139.777 36.652,142.552 36.652,144.219 36.625 C 145.886 36.598,144.475 36.575,141.083 36.575 C 137.692 36.575,136.328 36.598,138.053 36.625 M170.625 36.623 C 171.106 36.657,171.894 36.657,172.375 36.623 C 172.856 36.589,172.463 36.562,171.500 36.562 C 170.537 36.562,170.144 36.589,170.625 36.623 M190.713 36.623 C 191.152 36.657,191.827 36.657,192.213 36.622 C 192.600 36.587,192.242 36.559,191.417 36.559 C 190.592 36.560,190.275 36.588,190.713 36.623 M211.547 36.623 C 211.985 36.657,212.660 36.657,213.047 36.622 C 213.434 36.587,213.075 36.559,212.250 36.559 C 211.425 36.560,211.109 36.588,211.547 36.623 M232.542 36.623 C 232.977 36.657,233.690 36.657,234.125 36.623 C 234.560 36.588,234.204 36.560,233.333 36.560 C 232.463 36.560,232.106 36.588,232.542 36.623 M254.625 36.622 C 255.015 36.657,255.652 36.657,256.042 36.622 C 256.431 36.587,256.112 36.558,255.333 36.558 C 254.554 36.558,254.235 36.587,254.625 36.622 M274.713 36.623 C 275.152 36.657,275.827 36.657,276.213 36.622 C 276.600 36.587,276.242 36.559,275.417 36.559 C 274.592 36.560,274.275 36.588,274.713 36.623 M297.125 36.622 C 297.515 36.657,298.152 36.657,298.542 36.622 C 298.931 36.587,298.612 36.558,297.833 36.558 C 297.054 36.558,296.735 36.587,297.125 36.622 M315.129 36.622 C 315.521 36.657,316.121 36.657,316.463 36.621 C 316.804 36.585,316.483 36.557,315.750 36.557 C 315.017 36.558,314.737 36.587,315.129 36.622 M347.125 36.622 C 347.515 36.657,348.152 36.657,348.542 36.622 C 348.931 36.587,348.613 36.558,347.833 36.558 C 347.054 36.558,346.735 36.587,347.125 36.622 M218.545 49.500 C 218.545 49.913,218.578 50.081,218.618 49.875 C 218.657 49.669,218.657 49.331,218.618 49.125 C 218.578 48.919,218.545 49.087,218.545 49.500 M218.539 56.833 C 218.539 57.154,218.573 57.285,218.615 57.125 C 218.657 56.965,218.657 56.702,218.615 56.542 C 218.573 56.381,218.539 56.512,218.539 56.833 M35.339 69.589 C 35.353 74.287,35.430 74.833,36.083 74.833 C 36.129 74.833,36.242 74.833,36.333 74.833 C 36.427 74.833,36.500 75.304,36.500 75.911 C 36.500 77.056,36.693 77.333,37.489 77.333 C 37.801 77.333,37.833 77.433,37.833 78.407 C 37.833 79.582,37.939 79.745,38.750 79.813 C 38.942 79.829,39.000 80.066,39.000 80.846 L 39.000 81.858 39.659 82.137 C 40.191 82.363,40.327 82.512,40.367 82.917 C 40.409 83.344,40.494 83.424,40.949 83.468 C 41.431 83.515,41.486 83.578,41.532 84.135 C 41.579 84.694,41.632 84.755,42.125 84.802 C 42.523 84.841,42.667 84.937,42.667 85.164 C 42.667 85.787,42.860 86.000,43.424 86.000 C 43.928 86.000,43.984 86.049,44.031 86.542 C 44.077 87.018,44.149 87.090,44.625 87.136 C 45.100 87.181,45.167 87.248,45.167 87.671 C 45.167 88.204,45.544 88.500,46.223 88.500 C 46.551 88.500,46.618 88.567,46.550 88.827 C 46.475 89.115,46.833 89.689,47.077 89.673 C 48.615 89.570,49.000 89.668,49.000 90.161 C 49.000 90.785,49.381 91.000,50.484 91.000 C 51.292 91.000,51.329 91.021,51.464 91.542 L 51.604 92.083 52.822 92.139 C 53.817 92.184,54.105 92.262,54.395 92.564 C 54.590 92.767,54.656 92.811,54.542 92.662 C 54.427 92.513,54.333 92.347,54.333 92.293 C 54.333 92.129,54.842 92.260,54.852 92.427 C 54.857 92.513,54.939 92.677,55.035 92.792 C 55.130 92.906,55.142 93.000,55.062 93.001 C 54.982 93.002,55.134 93.116,55.400 93.254 C 55.864 93.496,70.385 93.560,71.409 93.325 C 71.827 93.229,72.373 92.699,72.253 92.505 C 72.103 92.263,72.362 92.194,73.588 92.153 C 74.793 92.112,74.993 92.003,74.997 91.383 C 75.000 91.045,75.092 91.011,76.125 90.966 L 77.250 90.917 77.302 90.292 L 77.353 89.667 78.343 89.646 C 79.905 89.613,79.759 89.694,79.813 88.833 C 79.826 88.614,79.951 88.500,80.178 88.500 C 80.797 88.500,81.167 88.186,81.167 87.661 C 81.167 87.207,81.215 87.167,81.750 87.167 C 82.306 87.167,82.333 87.139,82.333 86.583 C 82.333 86.014,82.349 86.000,83.000 86.000 C 83.537 86.000,83.667 85.940,83.667 85.692 C 83.667 85.321,84.171 84.833,84.555 84.833 C 84.768 84.833,84.833 84.679,84.833 84.177 C 84.833 83.559,84.864 83.518,85.375 83.469 C 85.851 83.423,85.923 83.351,85.969 82.875 C 86.015 82.401,86.081 82.333,86.501 82.333 C 87.024 82.333,87.211 82.138,87.298 81.503 C 87.366 81.010,87.336 81.046,87.750 80.974 C 88.316 80.877,88.447 80.631,88.484 79.593 C 88.526 78.428,88.483 78.512,89.074 78.463 C 89.628 78.417,89.832 77.988,89.836 76.864 C 89.837 76.435,89.911 75.971,90.000 75.833 C 90.136 75.622,90.162 75.621,90.164 75.824 C 90.166 75.998,90.238 75.975,90.429 75.740 C 90.573 75.562,90.637 75.522,90.570 75.651 C 90.488 75.809,90.514 75.844,90.649 75.761 C 90.804 75.665,90.800 75.576,90.633 75.370 C 90.452 75.146,90.455 75.126,90.653 75.245 C 90.831 75.352,90.863 75.319,90.784 75.111 C 90.725 74.958,90.741 74.833,90.819 74.833 C 90.897 74.833,90.974 73.990,90.989 72.958 C 91.004 71.927,91.088 71.012,91.175 70.925 C 91.262 70.838,91.333 70.834,91.333 70.915 C 91.333 70.997,91.451 70.918,91.596 70.740 C 91.740 70.562,91.803 70.522,91.737 70.651 C 91.654 70.810,91.680 70.845,91.819 70.759 C 91.931 70.690,91.982 70.528,91.933 70.400 C 91.884 70.272,91.926 70.167,92.026 70.167 C 92.146 70.167,92.137 70.082,92.000 69.917 C 91.886 69.779,91.865 69.667,91.954 69.667 C 92.049 69.667,92.109 68.915,92.099 67.831 C 92.087 66.419,92.034 66.015,91.871 66.078 C 91.710 66.139,91.700 66.082,91.830 65.840 C 91.951 65.613,91.945 65.486,91.808 65.401 C 91.693 65.330,91.660 65.355,91.727 65.463 C 91.788 65.562,91.763 65.691,91.669 65.748 C 91.513 65.845,91.424 65.615,91.487 65.271 C 91.502 65.191,91.400 65.169,91.262 65.222 C 91.124 65.275,90.966 65.247,90.912 65.159 C 90.853 65.064,88.895 65.000,86.032 65.001 C 80.899 65.001,80.215 65.112,80.141 65.956 C 80.126 66.118,80.095 66.438,80.071 66.667 C 80.047 66.896,79.972 68.302,79.905 69.792 C 79.793 72.258,79.754 72.502,79.474 72.521 C 78.651 72.577,78.719 72.453,78.686 73.958 C 78.669 74.748,78.630 74.834,78.292 74.836 C 77.666 74.840,77.540 75.037,77.416 76.199 C 77.298 77.299,77.289 77.316,76.773 77.366 C 76.300 77.412,76.245 77.476,76.198 78.042 C 76.149 78.633,76.115 78.667,75.573 78.667 C 75.029 78.667,75.000 78.696,75.000 79.250 C 75.000 79.821,74.986 79.833,74.323 79.833 C 73.898 79.833,73.687 79.898,73.754 80.007 C 73.823 80.118,73.717 80.144,73.460 80.079 C 72.998 79.963,72.574 80.350,72.726 80.748 C 72.800 80.940,72.696 81.001,72.286 81.005 C 71.587 81.012,71.167 81.345,71.167 81.893 C 71.167 82.329,70.189 82.501,68.625 82.342 C 68.465 82.326,68.333 82.384,68.333 82.471 C 68.333 82.558,68.202 82.619,68.042 82.606 C 67.876 82.593,67.771 82.681,67.798 82.809 C 67.933 83.453,67.613 83.500,63.052 83.500 C 58.932 83.500,58.650 83.481,58.732 83.208 C 58.849 82.821,58.456 82.322,58.064 82.358 C 57.891 82.373,57.169 82.374,56.458 82.360 L 55.167 82.333 55.167 81.839 C 55.167 81.314,54.797 81.000,54.178 81.000 C 53.894 81.000,53.735 80.812,53.861 80.625 C 53.941 80.508,53.464 79.836,53.351 79.906 C 53.079 80.074,51.950 79.650,52.147 79.453 C 52.422 79.178,52.373 78.995,52.056 79.117 C 51.871 79.188,51.818 79.159,51.898 79.030 C 51.976 78.904,51.928 78.872,51.759 78.936 C 51.616 78.991,51.500 78.953,51.500 78.851 C 51.500 78.750,51.381 78.667,51.236 78.667 C 51.091 78.667,51.006 78.573,51.047 78.458 C 51.144 78.186,50.874 77.667,50.635 77.667 C 50.532 77.667,50.591 77.830,50.766 78.030 L 51.083 78.394 50.642 78.072 C 50.400 77.895,50.235 77.694,50.277 77.625 C 50.319 77.556,50.269 77.500,50.165 77.500 C 50.053 77.500,50.020 77.365,50.083 77.167 C 50.144 76.975,50.113 76.833,50.011 76.833 C 49.913 76.833,49.842 76.777,49.853 76.708 C 49.916 76.311,49.780 76.167,49.343 76.167 C 48.898 76.167,48.849 76.110,48.802 75.542 C 48.755 74.975,48.701 74.912,48.222 74.865 L 47.693 74.814 47.608 73.615 C 47.499 72.101,47.479 72.000,47.285 72.000 C 47.198 72.000,47.219 71.887,47.333 71.750 C 47.545 71.495,47.503 71.464,46.917 71.434 C 46.602 71.418,46.578 71.264,46.482 68.750 C 46.384 66.160,46.355 65.900,46.094 65.300 C 45.982 65.042,45.493 65.015,40.648 65.005 L 35.325 64.993 35.339 69.589 " stroke="none" fill="#fcbc24" fill-rule="evenodd"></path><path id="path3" d="M252.078 48.250 C 252.078 53.475,252.099 55.588,252.125 52.946 C 252.151 50.305,252.151 46.030,252.125 43.446 C 252.099 40.863,252.078 43.025,252.078 48.250 M312.746 52.333 C 312.746 59.621,312.767 62.602,312.792 58.958 C 312.817 55.315,312.817 49.352,312.792 45.708 C 312.767 42.065,312.746 45.046,312.746 52.333 M118.708 63.782 C 118.869 63.823,119.131 63.823,119.292 63.782 C 119.452 63.740,119.321 63.705,119.000 63.705 C 118.679 63.705,118.548 63.740,118.708 63.782 M346.375 63.782 C 346.535 63.823,346.798 63.823,346.958 63.782 C 347.119 63.740,346.988 63.705,346.667 63.705 C 346.346 63.705,346.215 63.740,346.375 63.782 M349.042 63.782 C 349.202 63.823,349.465 63.823,349.625 63.782 C 349.785 63.740,349.654 63.705,349.333 63.705 C 349.012 63.705,348.881 63.740,349.042 63.782 " stroke="none" fill="#9c8880" fill-rule="evenodd"></path><path id="path4" d="M252.078 48.250 C 252.078 53.475,252.099 55.588,252.125 52.946 C 252.151 50.305,252.151 46.030,252.125 43.446 C 252.099 40.863,252.078 43.025,252.078 48.250 M312.746 52.333 C 312.746 59.621,312.767 62.602,312.792 58.958 C 312.817 55.315,312.817 49.352,312.792 45.708 C 312.767 42.065,312.746 45.046,312.746 52.333 M118.708 63.782 C 118.869 63.823,119.131 63.823,119.292 63.782 C 119.452 63.740,119.321 63.705,119.000 63.705 C 118.679 63.705,118.548 63.740,118.708 63.782 M346.375 63.782 C 346.535 63.823,346.798 63.823,346.958 63.782 C 347.119 63.740,346.988 63.705,346.667 63.705 C 346.346 63.705,346.215 63.740,346.375 63.782 M349.042 63.782 C 349.202 63.823,349.465 63.823,349.625 63.782 C 349.785 63.740,349.654 63.705,349.333 63.705 C 349.012 63.705,348.881 63.740,349.042 63.782 " stroke="none" fill="#9c8880" fill-rule="evenodd"></path></g></svg>